HIERARCHY
ROOT Hips
{
	OFFSET -14.64140 90.27770 -84.91600
	CHANNELS 6 Xposition Yposition Zposition Zrotation Xrotation Yrotation
	JOINT Spine
	{
		OFFSET 0.00000 13.20850 -1.60436
		CHANNELS 3 Zrotation Xrotation Yrotation
		JOINT Spine1
		{
			OFFSET 0.00000 8.61716 0.00000
			CHANNELS 3 Zrotation Xrotation Yrotation
			JOINT Spine2
			{
				OFFSET 0.00000 8.61717 0.00000
				CHANNELS 3 Zrotation Xrotation Yrotation
				JOINT Spine3
				{
					OFFSET 0.00000 8.61717 0.00000
					CHANNELS 3 Zrotation Xrotation Yrotation
					JOINT Neck
					{
						OFFSET 0.00000 11.07920 1.10792
						CHANNELS 3 Zrotation Xrotation Yrotation
						JOINT Neck1
						{
							OFFSET 0.00000 7.08032 0.00000
							CHANNELS 3 Zrotation Xrotation Yrotation
							JOINT Head
							{
								OFFSET 0.00000 7.08031 0.00000
								CHANNELS 3 Zrotation Xrotation Yrotation
								End site
								{
									OFFSET 0.00000 0.00000 0.00000
								}
							}
						}
					}
					JOINT RightShoulder
					{
						OFFSET -0.01000 7.91373 5.19711
						CHANNELS 3 Zrotation Xrotation Yrotation
						JOINT RightArm
						{
							OFFSET -18.41580 0.00000 0.00000
							CHANNELS 3 Zrotation Xrotation Yrotation
							JOINT RightForeArm
							{
								OFFSET -29.11090 0.00000 0.00000
								CHANNELS 3 Zrotation Xrotation Yrotation
								JOINT RightHand
								{
									OFFSET -24.65040 0.00000 0.00000
									CHANNELS 3 Zrotation Xrotation Yrotation
									JOINT RightHandThumb1
									{
										OFFSET -5.35114 -0.85590 3.97906
										CHANNELS 3 Zrotation Xrotation Yrotation
										JOINT RightHandThumb2
										{
											OFFSET -4.52789 0.00000 0.00000
											CHANNELS 3 Zrotation Xrotation Yrotation
											JOINT RightHandThumb3
											{
												OFFSET -2.46976 0.00000 0.00000
												CHANNELS 3 Zrotation Xrotation Yrotation
												End site
												{
													OFFSET 0.00000 0.00000 0.00000
												}
											}
										}
									}
									JOINT RightHandIndex1
									{
										OFFSET -14.26970 0.00000 2.88139
										CHANNELS 3 Zrotation Xrotation Yrotation
										JOINT RightHandIndex2
										{
											OFFSET -5.48836 0.00000 0.00000
											CHANNELS 3 Zrotation Xrotation Yrotation
											JOINT RightHandIndex3
											{
												OFFSET -3.01859 0.00000 0.00000
												CHANNELS 3 Zrotation Xrotation Yrotation
												End site
												{
													OFFSET 0.00000 0.00000 0.00000
												}
											}
										}
									}
									JOINT RightHandMiddle1
									{
										OFFSET -14.26970 0.00000 -0.09147
										CHANNELS 3 Zrotation Xrotation Yrotation
										JOINT RightHandMiddle2
										{
											OFFSET -6.17441 0.00000 0.00000
											CHANNELS 3 Zrotation Xrotation Yrotation
											JOINT RightHandMiddle3
											{
												OFFSET -3.56743 0.00000 0.00000
												CHANNELS 3 Zrotation Xrotation Yrotation
												End site
												{
													OFFSET 0.00000 0.00000 0.00000
												}
											}
										}
									}
									JOINT RightHandRing1
									{
										OFFSET -12.69180 0.00000 -3.06433
										CHANNELS 3 Zrotation Xrotation Yrotation
										JOINT RightHandRing2
										{
											OFFSET -5.62556 0.00000 0.00000
											CHANNELS 3 Zrotation Xrotation Yrotation
											JOINT RightHandRing3
											{
												OFFSET -3.56744 0.00000 0.00000
												CHANNELS 3 Zrotation Xrotation Yrotation
												End site
												{
													OFFSET 0.00000 0.00000 0.00000
												}
											}
										}
									}
									JOINT RightHandPinky1
									{
										OFFSET -11.11390 0.00000 -6.03719
										CHANNELS 3 Zrotation Xrotation Yrotation
										JOINT RightHandPinky2
										{
											OFFSET -4.52789 0.00000 0.00000
											CHANNELS 3 Zrotation Xrotation Yrotation
											JOINT RightHandPinky3
											{
												OFFSET -2.46976 0.00000 0.00000
												CHANNELS 3 Zrotation Xrotation Yrotation
												End site
												{
													OFFSET 0.00000 0.00000 0.00000
												}
											}
										}
									}
								}
							}
						}
					}
					JOINT LeftShoulder
					{
						OFFSET 0.01000 7.91373 5.19711
						CHANNELS 3 Zrotation Xrotation Yrotation
						JOINT LeftArm
						{
							OFFSET 18.41580 0.00000 0.00000
							CHANNELS 3 Zrotation Xrotation Yrotation
							JOINT LeftForeArm
							{
								OFFSET 29.11090 0.00000 0.00000
								CHANNELS 3 Zrotation Xrotation Yrotation
								JOINT LeftHand
								{
									OFFSET 24.65040 0.00000 0.00000
									CHANNELS 3 Zrotation Xrotation Yrotation
									JOINT LeftHandThumb1
									{
										OFFSET 5.35114 -0.85590 3.97906
										CHANNELS 3 Zrotation Xrotation Yrotation
										JOINT LeftHandThumb2
										{
											OFFSET 4.52789 0.00000 0.00000
											CHANNELS 3 Zrotation Xrotation Yrotation
											JOINT LeftHandThumb3
											{
												OFFSET 2.46977 0.00000 0.00000
												CHANNELS 3 Zrotation Xrotation Yrotation
												End site
												{
													OFFSET 0.00000 0.00000 0.00000
												}
											}
										}
									}
									JOINT LeftHandIndex1
									{
										OFFSET 14.26970 0.00000 2.88139
										CHANNELS 3 Zrotation Xrotation Yrotation
										JOINT LeftHandIndex2
										{
											OFFSET 5.48836 0.00000 0.00000
											CHANNELS 3 Zrotation Xrotation Yrotation
											JOINT LeftHandIndex3
											{
												OFFSET 3.01859 0.00000 0.00000
												CHANNELS 3 Zrotation Xrotation Yrotation
												End site
												{
													OFFSET 0.00000 0.00000 0.00000
												}
											}
										}
									}
									JOINT LeftHandMiddle1
									{
										OFFSET 14.26970 0.00000 -0.09147
										CHANNELS 3 Zrotation Xrotation Yrotation
										JOINT LeftHandMiddle2
										{
											OFFSET 6.17440 0.00000 0.00000
											CHANNELS 3 Zrotation Xrotation Yrotation
											JOINT LeftHandMiddle3
											{
												OFFSET 3.56744 0.00000 0.00000
												CHANNELS 3 Zrotation Xrotation Yrotation
												End site
												{
													OFFSET 0.00000 0.00000 0.00000
												}
											}
										}
									}
									JOINT LeftHandRing1
									{
										OFFSET 12.69180 0.00000 -3.06433
										CHANNELS 3 Zrotation Xrotation Yrotation
										JOINT LeftHandRing2
										{
											OFFSET 5.62556 0.00000 0.00000
											CHANNELS 3 Zrotation Xrotation Yrotation
											JOINT LeftHandRing3
											{
												OFFSET 3.56744 0.00000 0.00000
												CHANNELS 3 Zrotation Xrotation Yrotation
												End site
												{
													OFFSET 0.00000 0.00000 0.00000
												}
											}
										}
									}
									JOINT LeftHandPinky1
									{
										OFFSET 11.11390 0.00000 -6.03719
										CHANNELS 3 Zrotation Xrotation Yrotation
										JOINT LeftHandPinky2
										{
											OFFSET 4.52789 0.00000 0.00000
											CHANNELS 3 Zrotation Xrotation Yrotation
											JOINT LeftHandPinky3
											{
												OFFSET 2.46976 0.00000 0.00000
												CHANNELS 3 Zrotation Xrotation Yrotation
												End site
												{
													OFFSET 0.00000 0.00000 0.00000
												}
											}
										}
									}
								}
							}
						}
					}
					JOINT pCube4
					{
						OFFSET 0.00000 10.91090 1.10792
						CHANNELS 3 Zrotation Xrotation Yrotation
						End site
						{
							OFFSET 0.00000 0.00000 0.00000
						}
					}
				}
			}
		}
	}
	JOINT RightUpLeg
	{
		OFFSET -9.98441 0.00000 0.00000
		CHANNELS 3 Zrotation Xrotation Yrotation
		JOINT RightLeg
		{
			OFFSET 0.00000 -42.11790 0.00000
			CHANNELS 3 Zrotation Xrotation Yrotation
			JOINT RightFoot
			{
				OFFSET 0.00000 -45.00020 -0.00001
				CHANNELS 3 Zrotation Xrotation Yrotation
				JOINT RightForeFoot
				{
					OFFSET 0.00000 -3.74820 0.00000
					CHANNELS 3 Zrotation Xrotation Yrotation
					JOINT RightToeBase
					{
						OFFSET 0.00000 0.06325 14.43120
						CHANNELS 3 Zrotation Xrotation Yrotation
						End site
						{
							OFFSET 0.00000 0.00000 0.00000
						}
					}
				}
			}
		}
	}
	JOINT LeftUpLeg
	{
		OFFSET 9.98441 0.00000 0.00000
		CHANNELS 3 Zrotation Xrotation Yrotation
		JOINT LeftLeg
		{
			OFFSET 0.00000 -42.11800 0.00000
			CHANNELS 3 Zrotation Xrotation Yrotation
			JOINT LeftFoot
			{
				OFFSET 0.00000 -45.00070 0.00000
				CHANNELS 3 Zrotation Xrotation Yrotation
				JOINT LeftForeFoot
				{
					OFFSET 0.00000 -3.74824 0.00000
					CHANNELS 3 Zrotation Xrotation Yrotation
					JOINT LeftToeBase
					{
						OFFSET 0.00000 0.06325 14.43110
						CHANNELS 3 Zrotation Xrotation Yrotation
						End site
						{
							OFFSET 0.00000 0.00000 0.00000
						}
					}
				}
			}
		}
	}
}
MOTION
Frames: 4
Frame Time: 0.050000
0.007486643096888634 0.017638899605487028 0.001218864275768893 0.003990483276504826 0.03019063405860561 -0.021380571546962338 -2.5293736698469553 -0.32872735216423804 -0.94942440670763 -0.7322001032391007 3.518006585777301 0.2889460110482213 -1.037741976574239 -2.2826442700306546 -2.2253447511148936 0.24072088386612803 -0.010795529124799093 -0.995133716699258 -0.010887592706170554 13.046246196688292 0.08039180340862355 0.17865537764901537 0.4183422628456091 -0.3347180436454229 0.13800731694006824 -14.059752268093968 -0.043829947075639766 -4.200884503738234 1.5885503740547593 -14.511497582710215 69.282570703392 9.497744096972017 9.95862851760832 50.49277451999546 4.746935783446736 94.59390034968759 25.27787491648527 -0.3618207499297007 -4.9870215836887795 4.4909610022036555 -0.15745356197054644 -1.5830203217458545 0.014353904410952223 0.00842617222695131 -56.25439390281023 0.012551781335302981 0.0037759988784239816 -56.256258644912464 -38.727217757270665 -0.019750113476923428 -0.04607188871486859 0.04259241734440362 0.01910508137132404 0.03814913328947066 0.041729456373728935 -0.03374928007452321 -0.007585719698212309 -36.72467933319043 0.0200094672250801 -0.027189155604469096 0.02181908886222928 -0.003564573086924025 0.000618535167906056 -0.006222270412057943 0.0009623730508660728 -0.0005106366400273514 -19.748844651202145 -0.03463690442365054 0.010195875793798515 0.0016265508942782205 0.03813516998848078 -0.007417669707478323 0.031574289883804875 -0.013646366630999685 0.00299399744652517 24.06593819830491 0.03113365357817753 0.03585829576865159 28.87039386550815 -0.03828418832465981 0.024564566235836985 28.880199017254917 0.029331503443172726 0.03996555672206414 6.921547453193187 1.6395026414408633 11.833531259180324 -69.33079584097695 14.127299357740556 -15.167186472486462 -75.18101225132746 0.3996770634164784 -96.54750667821286 -17.492502532480533 -2.0518877631389656 -0.05163957677180747 -0.5058499141244721 0.09175036516898764 -8.13585263115365 -0.03605802661468084 -0.023112621232367105 44.56823838786286 -0.04165748421617779 -0.044472030702973765 44.566263578026486 12.452736120324955 -0.03160362075653536 -0.01609100385572441 -0.029105094268344043 0.021113002723307482 0.01196335578369005 0.024474657413051836 0.010181420406505548 -0.046417652255916715 11.095004622087652 -0.0239320305963019 0.024504793397158973 0.015262229920869532 0.0487530522262079 0.019233688311944164 -0.008091697147948681 -0.046865651814664906 -0.039630513413074456 4.737754074845229 0.02080421841985955 0.03229235193552185 0.00940603095180487 -0.02072799360171992 -0.04050138531359833 -0.022165870527634655 0.041192911514094016 -0.0032524718484573042 -5.634264285466798 0.04301509982471387 -0.00018871636960405758 -6.703971458295057 -0.03474051158364634 0.00022024028848771795 -6.739247870263018 -0.019342158215707003 -0.029014246356569927 -0.02841435317174494 0.002253093314076604 0.028286709942018966 8.063336487514976 3.473422072610366 -19.22342961510142 0.026286636127954174 10.364717345567286 0.019297768958733134 -5.6171662059313245 -15.632996228853143 3.198794056899293 -0.006661379380008792 0.014360530250224705 0.025837485681135475 -0.034467453851972474 4.723602563261623 0.007773981665269443 12.418087662107782 -8.194505657161034 6.8402225513305845 -0.048344714876417595 46.34373695815467 -0.004342518364831419 -4.362016809255972 -14.719168355113501 -3.8452678561402442 0.035207495673186914 0.018857640995065487 0.0001940780518264252 -0.018324433950410002 -10.735532753421165 0.01004908807337032 
-0.016911215816966793 -0.03776317755481093 -0.04691957274935091 -0.03698838457939491 -0.008236867707758732 -0.03282600130412211 -2.5581842860424953 -0.4084233481341097 -0.8657405097807567 -0.7635263018964508 3.559612684856689 0.35463861347656167 -1.1099103811839726 -2.3193308730777327 -2.206217438652326 0.22501359638202165 0.04708472415842409 -0.9553843282669288 -0.08364880245389618 12.939850834428043 0.13323475905554671 0.2398812601043789 0.3491964958522603 -0.20706655658577988 0.14599191455750218 -14.189312657785905 -0.029658207049170486 -4.1087900238395845 1.5122220501511303 -14.562402548229215 69.62474158156326 10.71848364015663 8.661594229155856 50.56046245097928 5.417027086322894 94.06526415801537 25.160531423959874 -0.35209188041754447 -4.933475683329536 4.498140085086849 -0.10047249547106368 -1.6260117399307061 0.0027641447387939232 -0.01347214780356237 -56.208441317942906 0.0421579480767505 -0.016840497523704197 -56.251931421509326 -38.75956187752974 -0.0062682463795143304 0.015832996713162885 -0.034700639336553464 -0.023049140749334247 -0.001018049085103545 -0.0003033580031227388 -0.042454957758136264 -0.024363537844086167 -36.70167484037183 0.03613410484564204 -0.008081379487322687 0.03612272392046202 -0.028030162075307657 0.01645835689028224 -0.023392792603457134 -0.02896273350531648 0.012054627336650569 -19.79839434501738 0.0003738077144526997 0.04099995266274389 0.049266620199042946 0.01692646957009665 0.016663381246499593 -0.014020478878148317 0.00882743628349669 -0.00019338212807879998 24.052336881910293 -0.04434904675790671 0.00833939207242804 28.85013874348299 -0.022962661544734392 0.004362083395403624 28.839416436482427 0.03696544422062132 0.028791556785467895 6.847360874515172 1.653990287075934 11.965393799312736 -70.10439800892271 14.241555832562586 -13.971078783924431 -78.24891496078891 0.9698462624041619 -97.75616040717891 -18.045692383941553 -2.1498837835391296 -0.1570869368429655 -0.5125106742925127 0.0815335791933561 -8.163327269010118 -0.029609548833961153 -0.0058763114254021635 44.58079094768342 -0.020058407085480717 0.01775822595750651 44.589424483571726 12.419815447972638 -0.04832226223421419 0.017268129152861047 -0.007675952603409339 -0.011245150541271965 0.014749611645616561 0.04487019362033216 -0.007879534517252115 -0.018652968336237967 11.073105571310547 0.018065152859947912 -1.8147487079195012e-05 0.013348756794054003 0.046324215697832176 -0.004032121160984362 0.028762846197198884 0.0018317265818630602 -0.04476997245399644 4.749971457128795 -0.012105830297827786 -0.010143027861595214 -0.004335278824358477 -0.0405142430339517 0.03432368665478197 -0.037961350404908945 -0.03573511904912687 0.010759507690970753 -5.583090702124094 0.001910220443702928 -0.04846012885879085 -6.706672784689053 0.005780968037107603 -0.016119675801557626 -6.693023713509372 0.011481334904885059 0.0292325070193529 0.016181640888758255 -0.028075031241313803 -0.003010124647949054 8.093966039115895 3.4850373855028933 -19.243769254568782 0.015796248043814885 10.404237637383838 0.03415387397696937 -5.5811880649121 -15.623063468149315 3.218809396935704 0.02330611488844472 0.003945178521374708 -0.006649605110884543 -0.0441773505391176 4.670852820741822 0.01851027030575501 12.498396464473853 -8.23026085817016 6.932426559659646 -0.02082247323558628 46.37006891954197 0.019637474496630707 -4.330629996499611 -14.708235542609911 -3.801507514126068 -0.031573228266367666 -0.014009494383273938 -0.0302810903194145 0.009912369914826845 -10.716493991577691 0.026344352039807662 
-0.03197530431793376 0.01848072214303857 0.009273341176199816 0.029638498093590065 0.024815694505250414 -0.025585039186186584 -2.5785330024816946 -0.43722528595017274 -0.9237916406242229 -0.7689700950785769 3.5295900416612733 0.26781806526931157 -1.029140132107603 -2.2375040458129907 -2.261936754511706 0.2389057562776491 0.03695783028876708 -1.0120821231322155 -0.050996725162421305 12.842153330048337 0.046346832423939416 0.18188073338512825 0.3052288142857496 -0.29139523769457154 0.10769727746951346 -14.199721064791854 0.038267538422485044 -3.9234150856321417 1.5586162476678633 -14.621696506994708 69.73677484494836 10.46084247002045 7.550336829789528 49.13797739049023 6.041834288951164 92.87262551654668 24.9371589844522 -0.3587303959577992 -4.933548289001937 4.567406038465004 -0.15470889804340138 -1.579428023552461 0.030822263457555982 -0.0388401268468829 -56.24281752908014 0.008415441222358114 -0.005195020813917305 -56.20038138623287 -38.7704517252337 0.024385280730496832 -0.017864504439944254 0.010739513662042755 -0.011273707651927301 -0.010640341558279831 0.042662746788727265 -0.03211115231064167 -0.04475572355223183 -36.682657091850125 0.04850221025993673 -0.004743109583000686 -0.014510995556334533 -0.006284384588460843 0.043472502645578455 0.01254049473465417 -0.0416245281874282 0.00013466671958106355 -19.79130600298893 0.0007974288107616947 -0.04028625577706757 -0.029086136700537262 0.03675281175268234 0.02746907257788509 0.012041506675354587 0.014587970491349566 -0.04184788344440134 24.044640255648623 -0.02522489607223973 -0.007493729034698445 28.825444602971412 -0.03314609299514306 0.044341397772708326 28.882162464642054 -0.04194166547530007 -0.017470343357091807 6.817162731104024 1.6098467877351346 12.03938402121195 -70.42309474767397 13.418065448003706 -13.229329533967217 -78.91907544558673 0.9872136396458845 -98.10006820387956 -17.64118232912926 -1.8932934268997768 -0.466819432716541 -0.45848003605779425 0.10242546993616358 -8.12180861893164 0.026606296237517996 -0.00959120325896438 44.59215012577008 0.029922797712294117 -0.03737127390723566 44.578201197772096 12.425640747540957 -0.0482256988559691 -0.04217699261800543 -0.045087017979948366 -0.045381208700261584 0.04560156189109846 0.0020398671550266624 0.006269048570964618 -0.004913432296542378 11.140362942000985 -0.04123599287914334 0.001254394539372783 0.028808623042504405 0.048196688928053844 -0.012391090049725498 -0.039853071731249745 -0.006362394562063949 -0.033310305115657406 4.761880601920589 -0.029843525800157995 -0.043595787704811866 0.010929126455807727 0.023015115042446705 0.008991307895413456 -0.0025757481221410565 -0.013696992114208491 -0.012662136331514655 -5.619999854572379 -0.03407985771687725 -0.034940672597308264 -6.727516038102202 -0.0413666446176442 0.037599456490601674 -6.693697953856166 -0.033085026560914076 0.04588417897096926 0.014875901442177744 -0.042460610052222535 0.01469978240467659 8.064763513713908 3.501211799122731 -19.22434715709448 0.0018199027426961114 10.380782793123283 -0.017096268354152653 -5.591040669898102 -15.695296553152724 3.181856450726958 -0.0006237842686127247 0.03151030276127492 0.013036849870413503 0.006594609087838966 4.746247044212283 0.029599656741948855 12.427511771819477 -8.255772535581997 6.851838788941792 -0.029269383443573386 46.33794759867285 0.03405982566913955 -4.359030337625717 -14.727897000973899 -3.843417182168799 0.017913431340176048 -0.04121999280266047 -0.03631891470939793 0.006594852755759771 -10.719674900764508 -0.028358711965093632 
0.0032770358754187334 -0.014543676994083335 0.02736889263191263 -0.04879854333270234 -0.02230120807601714 -0.01855967637796897 -2.6423738881246264 -0.4354877250937926 -0.9138347178432109 -0.7886100867976266 3.5493478551679094 0.3218124980133815 -1.0643472921105326 -2.253472681486383 -2.3128171774215325 0.26578425974841435 0.031260303626688794 -1.043168100701343 -0.08950716079682414 12.623355381058195 0.07529346131669559 0.19731567601680394 0.28647103675523583 -0.3250316619866557 0.14794110881032682 -14.270285487265863 -0.055876255991705176 -3.811736479983678 1.470091019496441 -14.655393386277469 69.68429667841716 9.890579015230482 6.623194545967164 47.85861093297603 6.559669615871672 91.93455145679656 24.79379798440782 -0.3414384497555127 -5.086924100092431 4.552420933543668 -0.1335985369971109 -1.6039671107830258 0.026841705100645492 -0.01682685630193669 -56.242724428236585 0.011773627160335627 -0.014667473871847496 -56.272772527544824 -38.774053553607885 -0.031487367577793336 -0.0050523715413444414 -0.002310139820568604 -0.011887305285028292 0.04777736065556302 -0.031616206865113745 -0.008320194236003702 -0.010351645389368759 -36.65177922325065 0.03220448557462549 0.04739061211701338 -0.03530580908773294 -0.0052362267984859935 0.03378825974604635 0.027980512761245895 0.0223192969599483 -0.030130607979462334 -19.769795823848693 0.02503995461620473 -0.024324265543902594 0.03756044701756663 -0.02986995941644916 -0.038818014348489784 0.007317942318799603 -0.0440359476718721 0.005919529881027888 24.081349203059343 0.02787794234532184 -0.018565371982906757 28.86868471379995 -0.01594203910559401 -0.0030004591400762458 28.847996593540042 -0.028221761121649123 -0.03564860361343161 6.644668502338361 1.5582949989307762 12.131765005662276 -70.75185746401216 12.636826942689533 -12.556432778096584 -79.01339531101542 1.1050421842111964 -98.24125377594254 -17.10476742407328 -1.5855749596750321 -0.7827653703994368 -0.4913641461419168 0.06190253980008999 -8.108819115767261 0.038926386886447596 0.0031123868449844036 44.53186235670159 0.02450467202988614 -0.008318713351052357 44.61081469626597 12.41604089356664 0.005094753584288126 -0.012874965726053357 -0.017539485622200188 0.016076585887943983 -0.039859919253476636 -0.013108682125293763 0.03718522504115382 0.0077369508879727485 11.057097712913993 0.0061948254094729 0.002368778288968207 -0.014711462318153592 -0.029192184824066842 2.889754442921956e-06 0.03462874211162628 0.008961846082920312 0.009461237842915467 4.8038908139052205 0.021523703244276902 -0.014809253548472621 0.046696951886397824 -0.024908731199551764 -0.013791063767727662 -0.03567668387218625 -0.023795795145427064 0.0013481994740999824 -5.631530351940453 0.028321866276578678 0.042286939966186265 -6.7388431686323305 0.04618936718883402 0.011622265001138053 -6.691508139778149 -0.004667385614739223 -0.015164791178081751 -0.03149211490381896 -0.03016229146477517 -0.03867615640535367 8.067988030721635 3.445217420141838 -19.21180368933212 -0.023652606268166548 10.401318397201408 -0.026169563778335025 -5.625141210857925 -15.68153604826616 3.2086230390657695 0.023296466159095253 -0.015259508331766047 0.0009707786614351997 0.043555027975644554 4.657255605661198 0.00250281373806308 12.462875833135996 -8.271291059211206 6.918089802259788 0.01051443173631803 46.338114092199476 -0.001768556704582391 -4.302905425627104 -14.723541093453019 -3.863160656580866 0.024828187508861614 -0.0072242914142658906 0.011865028313542641 -0.00966460880909728 -10.790538325613708 0.01802869256536822 
